<svg width="30" height="21" viewBox="0 0 30 21" fill="none" xmlns="http://www.w3.org/2000/svg">
<path d="M7.28197 3.61165C10.2036 5.59836 12.8444 7.27396 13.1497 7.33567C13.6779 7.4425 13.7785 6.61214 13.8951 1.1704C13.914 0.274512 14.1312 0 14.8193 0C15.7105 0 28.7035 8.46054 29.7121 9.69733C30.0016 10.0527 30.0872 10.6022 29.9027 10.9277C29.3108 11.9747 15.1677 21.2371 14.5308 20.9954C13.7798 20.7102 13.739 20.4433 13.5381 14.553L13.49 13.146L7.76543 17.0002C4.61673 19.1202 1.62887 20.8545 1.12609 20.8545C-0.0523598 20.8545 -0.0901885 20.434 0.0659347 9.04404C0.18679 0.223017 0.211743 0 1.07967 0C1.56911 0 4.35993 1.62537 7.28197 3.61165Z" fill="url(#paint0_linear_35_261)"/>
<path d="M7.28197 3.61165C10.2036 5.59836 12.8444 7.27396 13.1497 7.33567C13.6779 7.4425 13.7785 6.61214 13.8951 1.1704C13.914 0.274512 14.1312 0 14.8193 0C15.7105 0 28.7035 8.46054 29.7121 9.69733C30.0016 10.0527 30.0872 10.6022 29.9027 10.9277C29.3108 11.9747 15.1677 21.2371 14.5308 20.9954C13.7798 20.7102 13.739 20.4433 13.5381 14.553L13.49 13.146L7.76543 17.0002C4.61673 19.1202 1.62887 20.8545 1.12609 20.8545C-0.0523598 20.8545 -0.0901885 20.434 0.0659347 9.04404C0.18679 0.223017 0.211743 0 1.07967 0C1.56911 0 4.35993 1.62537 7.28197 3.61165Z" fill="url(#paint1_linear_35_261)"/>
<defs>
<linearGradient id="paint0_linear_35_261" x1="15" y1="0" x2="15" y2="21" gradientUnits="userSpaceOnUse">
<stop stop-color="#C051E0"/>
<stop offset="1" stop-color="#461255"/>
</linearGradient>
<linearGradient id="paint1_linear_35_261" x1="15" y1="0" x2="15" y2="21" gradientUnits="userSpaceOnUse">
<stop stop-color="#C051E0"/>
<stop offset="1" stop-color="#461255"/>
</linearGradient>
</defs>
</svg>
