<svg width="67" height="67" viewBox="0 0 67 67" fill="none" xmlns="http://www.w3.org/2000/svg">
<circle cx="30.5" cy="33.5" r="30.5" fill="url(#paint0_linear_35_297)"/>
<path d="M22.6667 33.5L27.8889 38.7222L38.3333 28.2778M7 33.5C7 36.5861 7.60785 39.6419 8.78883 42.4931C9.96982 45.3442 11.7008 47.9348 13.883 50.117C16.0652 52.2992 18.6558 54.0302 21.5069 55.2112C24.3581 56.3922 27.4139 57 30.5 57C33.5861 57 36.6419 56.3922 39.4931 55.2112C42.3442 54.0302 44.9348 52.2992 47.117 50.117C49.2992 47.9348 51.0302 45.3442 52.2112 42.4931C53.3922 39.6419 54 36.5861 54 33.5C54 30.4139 53.3922 27.3581 52.2112 24.5069C51.0302 21.6558 49.2992 19.0652 47.117 16.883C44.9348 14.7008 42.3442 12.9698 39.4931 11.7888C36.6419 10.6078 33.5861 10 30.5 10C27.4139 10 24.3581 10.6078 21.5069 11.7888C18.6558 12.9698 16.0652 14.7008 13.883 16.883C11.7008 19.0652 9.96982 21.6558 8.78883 24.5069C7.60785 27.3581 7 30.4139 7 33.5Z" stroke="url(#paint1_linear_35_297)" stroke-width="4" stroke-linecap="round" stroke-linejoin="round"/>
<defs>
<linearGradient id="paint0_linear_35_297" x1="30.5" y1="3" x2="30.5" y2="64" gradientUnits="userSpaceOnUse">
<stop stop-color="#C051E0"/>
<stop offset="1" stop-color="#461255"/>
</linearGradient>
<linearGradient id="paint1_linear_35_297" x1="30.5" y1="10" x2="30.5" y2="57" gradientUnits="userSpaceOnUse">
<stop stop-color="#323232"/>
<stop offset="1"/>
</linearGradient>
</defs>
</svg>
