<svg width="57" height="54" viewBox="0 0 57 54" fill="none" xmlns="http://www.w3.org/2000/svg">
<path d="M2 26.8014H4.94444M28.5 2V4.75571M52.0556 26.8014H55M9.65556 9.16484L11.7167 11.0938M47.3444 9.16484L45.2833 11.0938M21.7276 40.5799H35.2721M19.6667 37.8242C17.1947 36.0891 15.3688 33.67 14.4474 30.9097C13.5261 28.1493 13.5562 25.1877 14.5333 22.4442C15.5104 19.7007 17.3851 17.3145 19.8918 15.6236C22.3985 13.9327 25.4101 13.0228 28.5 13.0228C31.5899 13.0228 34.6015 13.9327 37.1082 15.6236C39.6149 17.3145 41.4896 19.7007 42.4667 22.4442C43.4438 25.1877 43.4739 28.1493 42.5526 30.9097C41.6312 33.67 39.8053 36.0891 37.3333 37.8242C36.1837 38.8892 35.3181 40.1926 34.8066 41.6288C34.2951 43.065 34.152 44.5937 34.3889 46.0913C34.3889 47.553 33.7685 48.9549 32.6641 49.9885C31.5597 51.0221 30.0618 51.6027 28.5 51.6027C26.9382 51.6027 25.4403 51.0221 24.3359 49.9885C23.2315 48.9549 22.6111 47.553 22.6111 46.0913C22.848 44.5937 22.7049 43.065 22.1934 41.6288C21.6819 40.1926 20.8163 38.8892 19.6667 37.8242Z" stroke="url(#paint0_linear_35_392)" stroke-width="4" stroke-linecap="round" stroke-linejoin="round"/>
<defs>
<linearGradient id="paint0_linear_35_392" x1="28.5" y1="2" x2="28.5" y2="51.6027" gradientUnits="userSpaceOnUse">
<stop stop-color="#C051E0"/>
<stop offset="1" stop-color="#461255"/>
</linearGradient>
</defs>
</svg>
