<svg width="126" height="48" viewBox="0 0 126 48" fill="none" xmlns="http://www.w3.org/2000/svg">
<path d="M78.4263 0.592441C81.4146 1.45129 84.4069 3.12544 85.3332 4.4566C86.4202 6.01844 86.0961 6.51828 81.3134 10.6578C77.9786 13.5442 77.034 14.2566 76.5412 14.2566C76.1721 14.2566 75.7048 13.5923 75.511 12.7916C75.1395 11.2585 73.4689 8.96182 71.6768 7.52129C68.4154 4.89941 64.6292 4.5359 62.9517 6.68333C62.6609 7.05562 62.2736 7.95101 62.0912 8.67294C61.8081 9.79275 61.7951 10.175 62.0024 11.2731C62.136 11.9812 62.4738 13.091 62.7533 13.7393C64.8486 18.6002 71.5049 23.8059 77.5357 25.2998C81.1191 26.1873 83.5431 25.7889 85.8103 23.9393C86.7879 23.1418 86.8753 23.1207 87.3376 23.5721C87.8824 24.1042 87.5992 25.7672 86.6428 27.6519C85.2694 30.3584 82.5258 32.5492 79.2264 33.5739C76.6468 34.3751 72.6645 34.4616 69.9383 33.7758C62.6383 31.9392 57.3208 26.0448 56.7347 19.1397C56.309 14.1257 58.1639 8.41334 61.2734 5.16192C63.9933 2.31796 67.0728 0.804566 71.5251 0.12346C72.9984 -0.101948 76.9434 0.166041 78.4263 0.592441Z" fill="white"/>
<path d="M28.9071 0.55689C30.885 1.41496 32.2074 2.87621 33.0032 5.08301C33.7171 7.06285 34.415 6.94116 36.3969 4.49117C38.071 2.42148 39.6981 1.18213 41.57 0.550834C42.6798 0.176586 43.3305 0.0953314 45.2208 0.0955267C47.3227 0.095722 47.6248 0.142991 48.7214 0.643615C50.6039 1.50325 51.7819 2.80296 52.578 4.89941C53.3837 7.02047 53.4615 8.14926 53.5982 19.7257C53.7294 30.8471 53.7352 30.9666 54.1843 31.9265C54.4335 32.4597 54.7832 33.0531 54.961 33.2449C55.271 33.5795 54.952 33.594 47.2565 33.594H39.2286L39.8087 32.7007C40.7762 31.2108 40.8591 30.1375 40.7862 20.0187C40.7242 11.4327 40.6952 10.7895 40.336 10.0828C39.6169 8.66824 38.1404 8.23657 36.5035 8.96241C35.5112 9.40268 34.9793 10.0346 34.3772 11.4894C33.9231 12.5861 33.9189 12.6768 33.9189 21.386C33.9189 29.172 33.9585 30.3006 34.2654 31.268C34.456 31.8688 34.7935 32.5859 35.0155 32.8615C35.2375 33.1371 35.4192 33.4147 35.4192 33.4783C35.4192 33.5418 31.8702 33.594 27.5323 33.594H19.6455L20.2516 32.4464C21.135 30.774 21.2558 29.0839 21.1816 19.4402C21.1176 11.1315 21.1114 11.0231 20.6579 10.124C19.3461 7.52363 15.7695 8.38287 14.6839 11.5591C14.3723 12.4713 14.3207 13.5975 14.2561 20.8977C14.1746 30.0861 14.2683 31.2246 15.227 32.7007L15.8071 33.594H7.77919C0.0837169 33.594 -0.235334 33.5795 0.074717 33.2449C0.252546 33.0531 0.604004 32.4597 0.855846 31.9265L1.31352 30.957L1.37013 17.7051C1.43094 3.48914 1.39653 2.90863 0.412169 1.55872C0.192733 1.25772 0.0133054 0.959264 0.0133054 0.895392C0.0133054 0.831325 2.84177 0.778976 6.29895 0.778976H12.5848L13.1649 1.25577C13.9186 1.87496 14.2157 2.89242 14.2157 4.85468C14.2157 6.25732 14.2581 6.44347 14.5775 6.44347C15.0762 6.44347 15.3874 6.16571 16.6573 4.58786C19.4497 1.11787 21.8531 -0.0554638 25.9176 0.0673971C27.4462 0.113494 28.1512 0.228935 28.9071 0.55689Z" fill="white"/>
<path fill-rule="evenodd" clip-rule="evenodd" d="M103.23 0.388321C103.546 0.696352 103.63 1.03934 103.63 2.00954C103.63 4.0509 104.083 4.17279 105.873 2.61329C107.968 0.787764 109.97 0.00411085 112.55 8.97631e-06C114.099 -0.00253028 116.558 0.534038 117.767 1.13799C121.647 3.07779 124.376 7.15094 125.639 12.8893C126.073 14.8582 126.126 19.4452 125.742 21.7028C125.112 25.4027 123.543 28.6225 121.33 30.7582C119.25 32.765 117.174 33.7432 114.044 34.1901C111.403 34.5671 109.026 33.9647 107.014 32.4089C106.597 32.0864 105.749 31.1649 105.129 30.3611C104.51 29.5573 103.919 28.9503 103.817 29.012C103.707 29.0786 103.63 32.3761 103.629 37.0726C103.629 42.2263 103.551 45.2913 103.409 45.7906C103.289 46.2143 102.92 46.8075 102.589 47.1091L101.988 47.6575H95.6163H89.2447L89.8442 46.7159C90.223 46.1205 90.5167 45.312 90.6419 44.5184C90.7653 43.7373 90.8191 36.6176 90.7843 25.6832L90.7283 8.10375L90.2814 7.49179C90.0356 7.15544 89.4279 6.69349 88.9312 6.46534C88.0259 6.04988 87.8102 5.67524 88.2779 5.3301C88.541 5.13594 92.742 3.25143 95.6291 2.03239C98.0891 0.993834 101.213 0.0117279 102.08 0.00411009C102.57 8.21295e-06 102.969 0.133028 103.23 0.388321ZM103.917 8.91924C104.365 6.63645 105.119 5.44965 106.359 5.07735C107.677 4.68201 109.749 5.36682 110.811 6.54855C112.827 8.79033 113.707 13.527 113.263 19.7492C112.937 24.3171 112.18 26.4346 110.444 27.6365C109.676 28.1674 109.45 28.2225 108.029 28.2225C106.749 28.2225 106.356 28.1471 105.895 27.8131C104.947 27.1253 104.232 25.777 103.925 24.0983C103.524 21.8999 103.518 10.9557 103.917 8.91924Z" fill="white"/>
<path d="M111.345 38.5721C112.704 39.4839 113.932 40.2529 114.074 40.2812C114.32 40.3302 114.366 39.9491 114.421 37.4517C114.429 37.0405 114.53 36.9145 114.851 36.9145C115.265 36.9145 121.308 40.7974 121.777 41.3651C121.912 41.5282 121.951 41.7803 121.866 41.9298C121.59 42.4103 115.013 46.6612 114.716 46.5502C114.367 46.4194 114.348 46.2969 114.255 43.5936L114.232 42.9478L111.57 44.7167C110.105 45.6896 108.716 46.4856 108.482 46.4856C107.934 46.4856 107.916 46.2926 107.989 41.0652C108.045 37.0169 108.057 36.9145 108.46 36.9145C108.688 36.9145 109.986 37.6605 111.345 38.5721Z" fill="#CA6BE5"/>
<path d="M111.345 38.5721C112.704 39.4839 113.932 40.2529 114.074 40.2812C114.32 40.3302 114.366 39.9491 114.421 37.4517C114.429 37.0405 114.53 36.9145 114.851 36.9145C115.265 36.9145 121.308 40.7974 121.777 41.3651C121.912 41.5282 121.951 41.7803 121.866 41.9298C121.59 42.4103 115.013 46.6612 114.716 46.5502C114.367 46.4194 114.348 46.2969 114.255 43.5936L114.232 42.9478L111.57 44.7167C110.105 45.6896 108.716 46.4856 108.482 46.4856C107.934 46.4856 107.916 46.2926 107.989 41.0652C108.045 37.0169 108.057 36.9145 108.46 36.9145C108.688 36.9145 109.986 37.6605 111.345 38.5721Z" fill="#CA6BE5"/>
</svg>
