<svg width="69" height="48" viewBox="0 0 69 48" fill="none" xmlns="http://www.w3.org/2000/svg">
<path d="M16.5402 8.15881C23.1763 12.6468 29.1746 16.432 29.8682 16.5714C31.0678 16.8128 31.2964 14.937 31.5611 2.64397C31.6041 0.620128 32.0974 0 33.6605 0C35.6846 0 65.1969 19.1125 67.4877 21.9065C68.1452 22.7093 68.3396 23.9505 67.9206 24.686C66.5763 27.0512 34.4518 47.9751 33.005 47.429C31.2993 46.7848 31.2066 46.182 30.7503 32.8756L30.6409 29.6971L17.6383 38.4039C10.4864 43.1929 3.69979 47.1108 2.55779 47.1108C-0.118929 47.1108 -0.204853 46.1608 0.149763 20.4307C0.424274 0.5038 0.48095 0 2.45234 0C3.56406 0 9.90311 3.67175 16.5402 8.15881Z" fill="black"/>
<path d="M16.5402 8.15881C23.1763 12.6468 29.1746 16.432 29.8682 16.5714C31.0678 16.8128 31.2964 14.937 31.5611 2.64397C31.6041 0.620128 32.0974 0 33.6605 0C35.6846 0 65.1969 19.1125 67.4877 21.9065C68.1452 22.7093 68.3396 23.9505 67.9206 24.686C66.5763 27.0512 34.4518 47.9751 33.005 47.429C31.2993 46.7848 31.2066 46.182 30.7503 32.8756L30.6409 29.6971L17.6383 38.4039C10.4864 43.1929 3.69979 47.1108 2.55779 47.1108C-0.118929 47.1108 -0.204853 46.1608 0.149763 20.4307C0.424274 0.5038 0.48095 0 2.45234 0C3.56406 0 9.90311 3.67175 16.5402 8.15881Z" fill="black"/>
</svg>
